# xmcd
#
# Track frame offsets: 
#        150
#        16145
#        49161
#
# Disc length: 1200 seconds
#
# Revision: 0
# Processed by: cddbd v1.5.2PL0 Copyright (c) Steve Scherf et al.
# Submitted via: ExactAudioCopyFreeDBPlugin 1.0
#
DISCID=1a04ae03
DTITLE=Joss Stone - Don't Cha Wanna Ride
DYEAR=2005
DGENRE=Soul
TTITLE0=Don't Cha Wanna Ride
TTITLE1=You Had Me
TTITLE2=Copy Protection
EXTD=
EXTT0=
EXTT1=
EXTT2=
PLAYORDER=
